<?xml version="1.0" encoding="UTF-8" standalone="no"?>
<svg
   style="isolation:isolate"
   viewBox="66.993 897.484 32 32.000001"
   version="1.1"
   id="svg11"
   sodipodi:docname="scalable.svg"
   xml:space="preserve"
   inkscape:export-filename="216333102-4d10c195-be66-4fa0-97ca-70a71756b25e.png"
   inkscape:export-xdpi="3733.2917"
   inkscape:export-ydpi="3733.2917"
   inkscape:version="1.4.2 (f4327f4, 2025-05-13)"
   width="32"
   height="32"
   xmlns:inkscape="http://www.inkscape.org/namespaces/inkscape"
   xmlns:sodipodi="http://sodipodi.sourceforge.net/DTD/sodipodi-0.dtd"
   xmlns="http://www.w3.org/2000/svg"
   xmlns:svg="http://www.w3.org/2000/svg"><defs
     id="defs15" /><sodipodi:namedview
     id="namedview13"
     pagecolor="#ffffff"
     bordercolor="#000000"
     borderopacity="0.25"
     inkscape:showpageshadow="2"
     inkscape:pageopacity="0.0"
     inkscape:pagecheckerboard="0"
     inkscape:deskcolor="#d1d1d1"
     showgrid="false"
     inkscape:zoom="2"
     inkscape:cx="11.25"
     inkscape:cy="90.25"
     inkscape:window-width="1680"
     inkscape:window-height="961"
     inkscape:window-x="-9"
     inkscape:window-y="-9"
     inkscape:window-maximized="1"
     inkscape:current-layer="svg11"
     showguides="true" /><linearGradient
     id="a"
     x1="0.14773831"
     x2="0.84543866"
     y1="0.85134232"
     y2="0.15443686"
     gradientTransform="matrix(26.301,0,0,26.331,90.673535,911.7572)"
     gradientUnits="userSpaceOnUse"><stop
       offset="0"
       stop-color="#004ba6"
       id="stop4"
       style="stop-color:#0071ff;stop-opacity:1;" /><stop
       offset="1"
       stop-color="#00bfe1"
       id="stop6"
       style="stop-color:#00bfe1;stop-opacity:1;" /></linearGradient><g
     transform="matrix(0.03451102,0,0,-0.03451102,70.459719,927.60406)"
     fill="#000000"
     stroke="none"
     id="g4"><path
       d="m 410,702 5,-77 3,69 c 2,38 -1,73 -5,77 -4,4 -6,-27 -3,-69 z"
       id="path1" /><path
       d="m 531,630 c -29,-33 -49,-60 -44,-60 5,0 35,27 68,60 36,36 53,60 44,60 -9,0 -39,-27 -68,-60 z"
       id="path2" /><path
       d="m 196,661 c 37,-35 127,-102 131,-98 5,6 -118,107 -131,107 -6,0 -6,-3 0,-9 z"
       id="path3" /><path
       d="M 383,543 C 367,514 361,512 290,506 211,500 85,469 68,452 c -5,-5 17,0 49,11 52,18 233,37 233,25 0,-3 -13,-34 -29,-69 C 305,384 280,317 266,270 L 240,185 172,152 C 84,109 -1,30 41,30 c 6,0 32,19 57,41 43,38 67,51 162,92 47,20 259,69 270,62 4,-3 17,-37 26,-75 10,-39 22,-70 27,-70 18,0 17,31 -6,86 l -23,59 80,10 c 104,13 97,30 -13,30 h -84 l -38,108 -39,107 h 25 c 13,0 47,-5 75,-11 44,-9 91,-6 79,6 -2,2 -45,9 -94,15 -50,7 -96,17 -102,22 -9,7 -13,7 -13,-1 0,-8 -8,-10 -22,-5 -33,9 -33,12 -13,34 10,11 15,23 12,26 -4,4 -14,-7 -24,-23 z m 53,-61 c 14,-8 83,-213 77,-224 -2,-5 -16,-8 -31,-8 -15,0 -71,-13 -124,-29 -54,-15 -98,-25 -98,-21 0,15 51,167 77,228 24,57 28,62 57,62 17,0 36,-4 42,-8 z"
       id="path4" /></g></svg>
